<svg version="1.1" id="Layer_1" xmlns="http://www.w3.org/2000/svg" xmlns:xlink="http://www.w3.org/1999/xlink" x="0px" y="0px"
	 width="100%" viewBox="0 0 768 768" enable-background="new 0 0 768 768" xml:space="preserve">
<path fill="#000000" opacity="1.000000" stroke="none" 
	d="
M455.650391,520.794556 
	C455.220245,489.422546 463.359100,460.133789 472.348145,430.986359 
	C481.834381,400.226624 495.011078,370.871674 506.375702,340.827362 
	C516.028076,315.309845 525.544922,289.717834 531.051208,262.869263 
	C535.109436,243.081238 537.597168,223.067520 536.547302,202.909576 
	C534.245178,158.708221 519.983032,119.452660 486.190796,89.183739 
	C464.538940,69.789429 439.078369,58.073898 410.195099,54.283806 
	C365.435394,48.410385 325.645569,59.856346 291.686737,89.771370 
	C269.969025,108.902901 256.262207,133.183090 248.411209,160.932114 
	C241.742798,184.501358 240.981888,208.438522 242.981293,232.675034 
	C246.324448,273.200653 260.183380,310.831329 274.811188,348.176056 
	C287.500610,380.572052 301.059601,412.626312 310.641571,446.148804 
	C317.144897,468.900726 322.059937,491.939270 323.034882,515.677917 
	C323.082764,516.843018 323.135620,518.010986 323.108124,519.175720 
	C322.902496,527.895203 320.794769,530.186768 312.057800,530.210815 
	C276.562103,530.308472 241.065842,530.230713 205.570419,530.375305 
	C201.929611,530.390137 200.553101,528.887268 199.921799,525.650269 
	C193.815964,494.342468 187.724335,463.031464 181.415268,431.764404 
	C180.648956,427.966675 181.766083,427.072968 185.203018,426.916321 
	C193.764847,426.526062 193.707321,426.452515 195.708115,434.863037 
	C199.243835,449.725800 201.634583,464.849396 206.468277,479.422424 
	C209.070511,487.267792 213.943146,491.628845 222.061600,492.867493 
	C227.823410,493.746582 233.548248,494.690399 239.401474,494.693268 
	C259.899048,494.703247 280.396637,494.781067 300.894196,494.793640 
	C302.855316,494.794861 304.889740,495.181671 307.022369,494.087708 
	C307.269043,490.137115 305.906250,486.387390 304.998596,482.580322 
	C298.587311,455.688660 285.902893,431.521606 272.326660,407.765381 
	C256.537079,380.136047 238.449066,353.879944 223.126129,325.977203 
	C209.558792,301.271332 197.196182,276.059296 191.532272,248.085861 
	C178.558655,184.010620 198.934296,131.591446 247.524216,89.512306 
	C275.063721,65.662949 307.566437,51.388214 343.284729,44.789902 
	C397.064514,34.855049 448.834656,40.844349 497.286774,67.070938 
	C538.673828,89.473259 569.133606,121.876099 583.838623,167.454926 
	C595.748047,204.368561 591.770264,240.748398 578.731079,276.478607 
	C567.533020,307.163483 550.656738,334.983948 533.773132,362.749756 
	C519.841309,385.661255 505.228363,408.157318 492.929993,432.045166 
	C483.578247,450.209656 476.359589,469.098236 471.822083,489.012451 
	C470.656464,494.128174 471.144745,494.777863 476.561127,494.774872 
	C498.391846,494.762756 520.223206,494.780151 542.052856,494.604370 
	C547.870178,494.557526 553.640564,493.555695 559.330322,492.263885 
	C566.426575,490.652802 570.365540,485.972900 572.290222,479.170654 
	C576.682434,463.647614 580.262268,447.935547 583.484863,432.135925 
	C584.394897,427.674561 592.972168,424.716827 596.376526,427.686890 
	C597.734192,428.871307 597.307190,430.446777 597.022339,431.882904 
	C590.781860,463.345337 584.490723,494.797760 578.292664,526.268494 
	C577.693909,529.308655 576.174133,530.356628 573.163330,530.349976 
	C537.000916,530.269958 500.838135,530.318542 464.675842,530.210266 
	C457.629669,530.189148 455.919128,528.241882 455.650391,520.794556 
z"/>
<path fill="#000000" opacity="1.000000" stroke="none" 
	d="
M308.219971,582.083313 
	C306.282318,587.251282 305.029938,592.178894 303.870972,598.080383 
	C312.124512,595.542358 319.193115,592.449829 326.047180,588.814209 
	C328.891022,587.305725 331.741852,586.110657 335.090790,587.246582 
	C337.458038,588.049438 339.365845,589.330627 339.977814,591.790771 
	C340.641418,594.458618 338.913910,596.214355 336.985931,597.631531 
	C333.596161,600.123169 329.709534,601.687988 325.765900,603.007202 
	C318.669403,605.381165 311.564697,607.772888 304.344971,609.717285 
	C301.020294,610.612610 299.460968,612.252197 298.443176,615.483215 
	C289.688385,643.275635 280.052063,670.744080 267.204651,696.968506 
	C265.523804,700.399414 263.702698,703.804749 261.545990,706.946899 
	C259.465454,709.978088 256.474701,712.213989 252.608292,710.344482 
	C248.699814,708.454651 248.198883,704.726196 249.035828,700.887573 
	C249.675339,697.954468 250.986282,695.255554 252.684845,692.731018 
	C267.681366,670.442505 278.550140,646.240417 286.057983,620.489441 
	C286.429932,619.213684 286.792999,617.933533 287.094330,616.640137 
	C287.201080,616.181885 287.111359,615.677917 287.111359,615.100342 
	C285.119293,613.637695 282.979431,614.399231 280.922424,614.748230 
	C274.794342,615.788086 268.592163,615.796326 262.497223,615.125671 
	C253.182816,614.100647 247.371643,608.105957 243.397400,600.041626 
	C242.684952,598.596069 242.436707,597.215515 243.793442,595.949646 
	C245.472107,594.383484 246.884613,595.279663 248.149414,596.473083 
	C260.290375,607.928528 274.561401,605.001587 288.757233,602.498718 
	C290.888458,602.122925 291.569794,600.413330 291.933258,598.493591 
	C293.137634,592.132324 294.464844,585.793030 295.578461,579.416260 
	C296.286591,575.361389 294.486542,572.650696 290.527252,571.459106 
	C287.980042,570.692383 285.423279,569.952820 282.851929,569.272400 
	C281.277557,568.855774 280.769318,567.819092 280.772125,566.320251 
	C280.775055,564.760132 281.496063,563.797302 283.012268,563.479980 
	C292.396912,561.515747 301.234863,562.612610 309.135773,568.397766 
	C311.238403,569.937317 311.742401,572.197937 310.892273,574.669006 
	C310.080536,577.028442 309.190521,579.360962 308.219971,582.083313 
z"/>
<path fill="#000000" opacity="1.000000" stroke="none" 
	d="
M545.452026,701.660034 
	C523.175537,706.026123 501.169556,707.603394 479.183197,703.194092 
	C463.312866,700.011353 451.767548,691.349365 448.248779,674.571411 
	C446.942719,668.343994 447.431305,661.964661 448.038849,655.674683 
	C448.248474,653.504272 448.592468,650.711121 452.003784,651.025146 
	C455.127167,651.312622 454.771637,653.844421 454.949890,655.935791 
	C455.232239,659.249023 455.102081,662.632202 455.721558,665.875977 
	C458.741852,681.690308 470.487396,690.622314 487.811768,691.780396 
	C507.743347,693.112915 527.281006,691.647522 546.507385,686.182495 
	C549.807739,685.244385 553.110596,685.384094 556.256958,686.865051 
	C558.455505,687.899841 560.185547,689.330017 560.322632,692.057129 
	C560.465271,694.895630 559.201355,696.873352 556.751770,698.099609 
	C553.308838,699.823059 549.662476,700.953796 545.452026,701.660034 
z"/>
<path fill="#000000" opacity="1.000000" stroke="none" 
	d="
M507.531219,586.587158 
	C516.058105,585.748962 523.827820,582.530701 532.139648,583.622803 
	C536.007935,584.131042 539.693909,585.149902 542.708740,587.684448 
	C546.237671,590.651245 545.591553,594.415466 541.363647,596.345764 
	C540.611206,596.689270 539.807617,597.003479 538.996765,597.124146 
	C519.680176,599.999329 502.840973,609.299988 485.640961,617.664124 
	C484.892487,618.028076 484.159821,618.426208 483.431274,618.829102 
	C481.721893,619.774292 480.121613,620.440796 478.701721,618.278992 
	C477.136383,615.895752 478.934448,614.992554 480.456909,613.995789 
	C487.008392,609.706787 493.587677,605.460083 500.145447,601.180664 
	C501.630066,600.211792 503.069153,599.173218 505.346130,597.603516 
	C495.964081,597.062439 487.494415,597.140625 479.234497,595.294739 
	C470.848267,593.420532 463.874603,589.066040 457.932709,582.947632 
	C456.781311,581.762085 456.146179,580.555298 457.325256,578.998291 
	C458.425629,577.545227 459.693848,577.273071 461.213226,578.283386 
	C475.303040,587.652710 491.188293,587.133179 507.531219,586.587158 
z"/>
<path fill="#000000" opacity="1.000000" stroke="none" 
	d="
M390.965118,698.355103 
	C391.583374,702.451111 389.244843,704.607178 386.298218,705.384888 
	C365.441559,710.889465 344.451172,713.031677 324.766663,701.962952 
	C312.356262,694.984497 309.382965,682.239441 308.709869,668.951965 
	C308.626404,667.304382 309.207184,666.001282 311.168396,665.864319 
	C313.048187,665.733032 313.868469,666.820435 314.234802,668.453674 
	C314.344025,668.940430 314.374695,669.447144 314.508942,669.925720 
	C319.596100,688.062256 330.344177,696.255798 349.296326,696.689453 
	C358.321716,696.895996 367.168762,695.872131 376.028748,694.194580 
	C381.320770,693.192627 387.120575,691.996460 390.965118,698.355103 
z"/>
<path fill="#000000" opacity="1.000000" stroke="none" 
	d="
M491.407990,251.882874 
	C483.465576,254.182922 476.806885,252.919083 471.764191,246.493149 
	C465.546112,238.569397 466.899658,227.853867 474.696106,222.094131 
	C482.634216,216.229736 493.941833,218.137909 499.387817,226.260864 
	C504.945068,234.549789 502.590942,245.197189 493.994202,250.585999 
	C493.291443,251.026535 492.516907,251.352570 491.407990,251.882874 
z"/>
<path fill="#000000" opacity="1.000000" stroke="none" 
	d="
M313.654938,222.183289 
	C320.790100,229.141724 322.309509,236.241714 318.487823,243.570984 
	C314.867188,250.514709 307.650848,254.045883 300.202393,252.694382 
	C292.568115,251.309189 288.285828,246.524475 286.379547,239.326553 
	C284.597473,232.597641 287.126953,227.003510 292.050690,222.782822 
	C297.562317,218.058167 304.086273,217.503632 310.792206,220.409348 
	C311.699524,220.802490 312.501312,221.439163 313.654938,222.183289 
z"/>
<path fill="#000000" opacity="1.000000" stroke="none" 
	d="
M382.378052,621.425781 
	C384.062256,622.829712 385.681580,623.842163 386.739014,625.270569 
	C389.388367,628.849487 388.421448,632.557068 384.110748,633.260986 
	C372.403595,635.172852 361.971924,640.225525 351.538025,645.385925 
	C349.746826,646.271912 348.368530,646.193054 347.342957,644.345276 
	C346.275482,642.421875 347.763062,641.654297 348.981934,640.806885 
	C353.081268,637.956726 357.228180,635.173706 361.287598,632.268188 
	C362.727234,631.237854 364.546082,630.477600 365.100220,627.974121 
	C357.237030,624.594788 349.011536,624.995178 340.793579,625.743530 
	C336.332367,626.149780 331.892303,626.861389 327.471802,627.607666 
	C325.571472,627.928345 324.190033,627.915894 323.738647,625.645935 
	C323.335846,623.620605 324.205322,622.488770 326.049194,621.875916 
	C344.649963,615.693726 363.295349,613.493958 382.378052,621.425781 
z"/>
</svg>