<?xml version="1.0" encoding="UTF-8"?>
<svg xmlns="http://www.w3.org/2000/svg" width="256" height="256" viewBox="0 0 256 256">
  <g fill="none" fill-rule="evenodd">
    <path fill="#000" d="M128 24c46.392 0 84 37.608 84 84 0 19.378-6.66 37.255-18.252 51.446-4.432 5.442-12.005 8.43-20.28 8.43h-24.212c-11.098 0-17.019-3.628-19.564-12.544-2.448-8.597-6.323-25.811-8.69-36.099-.512-2.242-1.777-2.242-2.289 0-2.367 10.288-6.242 27.502-8.69 36.099-2.545 8.916-8.466 12.544-19.564 12.544h-24.212c-8.275 0-15.848-2.988-20.28-8.43C66.66 145.255 60 127.378 60 108c0-46.392 37.608-84 84-84Z"/>
    <circle cx="103" cy="112" r="9" fill="#000"/>
    <circle cx="153" cy="112" r="9" fill="#000"/>
    <path fill="#000" d="M64 182h12l9 36c2.058 8.232 6.626 11 21.466 11H128v16H84.415c-20.168 0-27.508-6.694-31.366-21.278L44 182h20Zm128 0h12l9 36c2.058 8.232 6.626 11 21.466 11H256v16h-43.585c-20.168 0-27.508-6.694-31.366-21.278L180 182h12Z"/>
    <path fill="#000" d="M97 228c11.598 0 19.457 4.307 22.262 11H97c-11.598 0-19.457-4.307-22.262-11H97Zm62 0c11.598 0 19.457 4.307 22.262 11H159c-11.598 0-19.457-4.307-22.262-11H159Z"/>
  </g>
</svg>
