<?xml version="1.0" encoding="UTF-8"?>
<svg xmlns="http://www.w3.org/2000/svg" viewBox="0 0 512 512">
  <g fill="#000000">
    <!--_head & tentacles -->
    <path d="M256 40c98 0 178 80 178 178 0 40-13 77-36 108-9 12-25 19-42 19h-49c-23 0-35-7-40-26l-23-94c-1-4-6-4-7 0l-23 94c-5 19-17 26-40 26h-49c-17 0-33-7-42-19-23-31-36-68-36-108 0-98 80-178 178-178zM148 378l20 80c4 15 11 22 38 22h50v20H198c-36 0-49-12-55-38l-16-84h21zm216 0l20 80c4 15 11 22 38 22h50v20h-58c-36 0-49-12-55-38l-16-84h21z"/>
    <!-- eyes -->
    <circle cx="192" cy="218" r="18"/>
    <circle cx="320" cy="218" r="18"/>
    <!-- text "たこ" rendered as path -->
    <path d="M178 420c11 15 24 20 46 18 12-1 23-4 36-11 6-3 9-2 11 2 1 5-1 8-6 11-16 9-30 13-48 15-25 2-43-5-55-25-2-4-1-8 3-10 3-3 8-2 11 0 1 0 1 0 2 0z"/>
    <path d="M258 423c7-2 11-1 13 5 3 8 0 13-9 15-9 2-14-1-15-8 0-6 3-10 11-12z"/>
    <path d="M289 441c22-16 41-22 70-20 21 1 38 7 49 17 4 4 4 9 0 12-4 4-9 3-14-1-8-7-18-12-36-13-24-2-41 4-59 16-7 5-11 3-13-2-2-5 0-8 3-9z"/>
  </g>
</svg>
